<?xml version="1.0" encoding="iso-8859-1"?>
<!-- Generator: Adobe Illustrator 19.0.0, SVG Export Plug-In . SVG Version: 6.00 Build 0)  -->
<svg version="1.1" id="Layer_1" xmlns="http://www.w3.org/2000/svg" xmlns:xlink="http://www.w3.org/1999/xlink" x="0px" y="0px"
	 viewBox="0 0 511.998 511.998" style="enable-background:new 0 0 511.998 511.998;" xml:space="preserve">
<circle style="fill:#FAD24D;" cx="255.999" cy="255.999" r="255.999"/>
<path style="fill:#EDB937;" d="M256,407.272c100.671,0,182.283,6.433,182.283,14.369c0,7.937-81.61,14.371-182.283,14.371
	c-100.671,0-182.283-6.433-182.283-14.371C73.717,413.706,155.327,407.272,256,407.272z"/>
<path style="fill:#666666;" d="M65.98,67.221h380.036c12.486,0,22.702,10.217,22.702,22.702v234.106H43.279V89.922
	C43.279,77.436,53.494,67.221,65.98,67.221z"/>
<path style="fill:#21D0C3;" d="M58.695,308.616h394.608V89.925c0-3.977-3.31-7.287-7.285-7.287H65.982
	c-3.977,0-7.285,3.31-7.285,7.287v218.692h-0.002V308.616z"/>
<g>
	<path style="fill:#FFFFFF;" d="M468.717,324.031v24.826c0,12.489-11.26,22.702-25.025,22.702H68.304
		c-13.765,0-25.025-10.213-25.025-22.702v-24.826H468.717z"/>
	<path style="fill:#FFFFFF;" d="M141.238,115.527h229.525h34.166c4.141,0,7.527,3.388,7.527,7.527v44.795v140.767H99.544
		L99.542,167.85v-44.795c0-4.141,3.386-7.527,7.527-7.527h34.166H141.238z"/>
</g>
<path style="fill:#828282;" d="M107.071,115.527h297.857c4.141,0,7.527,3.386,7.527,7.527v15.053H99.544v-15.053
	C99.544,118.914,102.931,115.527,107.071,115.527z"/>
<path style="fill:#FFFFFF;" d="M226.382,123.326h163.622c1.114,0,2.022,0.913,2.022,2.022v3.753c0,1.111-0.91,2.022-2.022,2.022
	H226.382c-1.109,0-2.02-0.908-2.02-2.022v-3.753C224.363,124.234,225.271,123.326,226.382,123.326z"/>
<path style="fill:#21D0C3;" d="M117.333,121.983c2.392,0,4.333,1.938,4.333,4.335c0,2.394-1.942,4.333-4.333,4.333
	c-2.396,0-4.337-1.938-4.337-4.333C112.996,123.921,114.938,121.983,117.333,121.983z"/>
<path style="fill:#FAD24D;" d="M134.441,121.983c2.396,0,4.335,1.938,4.335,4.335c0,2.394-1.938,4.333-4.335,4.333
	c-2.392,0-4.333-1.938-4.333-4.333C130.108,123.921,132.049,121.983,134.441,121.983z"/>
<path style="fill:#FF5B62;" d="M151.552,121.983c2.392,0,4.333,1.938,4.333,4.335c0,2.394-1.942,4.333-4.333,4.333
	c-2.396,0-4.337-1.938-4.337-4.333C147.215,123.921,149.158,121.983,151.552,121.983z"/>
<g>
	<path style="fill:#C9CACC;" d="M160.974,185.201v3.596h3.594v-3.596H160.974z M174.231,179.944v3.391
		c0,1.696-0.746,2.306-1.933,2.306c-1.187,0-1.931-0.609-1.931-2.306v-12.819c0-1.696,0.746-2.339,1.931-2.339
		c1.187,0,1.933,0.644,1.933,2.339v2.544h3.528v-2.307c0-3.799-1.898-5.968-5.561-5.968c-3.662,0-5.56,2.17-5.56,5.968v12.345
		c0,3.799,1.898,5.968,5.56,5.968c3.662,0,5.561-2.17,5.561-5.968v-3.155H174.231z M183.456,170.516
		c0-1.696,0.746-2.339,1.933-2.339c1.187,0,1.933,0.644,1.933,2.339v12.819c0,1.696-0.748,2.339-1.933,2.339
		s-1.933-0.644-1.933-2.339V170.516z M179.725,183.099c0,3.799,2,5.968,5.664,5.968c3.662,0,5.662-2.17,5.662-5.968v-12.345
		c0-3.799-2-5.968-5.662-5.968c-3.665,0-5.664,2.17-5.664,5.968V183.099z M198.614,165.057h-5.188v23.74h3.257v-16.788l2.781,16.788
		h3.528l2.575-17.026v17.026h3.528v-23.74h-5.188l-2.544,16.854L198.614,165.057z M160.971,225.895v3.596h3.594v-3.596H160.971z
		 M175.248,229.491h3.832v-23.74h-3.324v14.21l-3.833-14.21h-4.681v23.74h3.358v-17.193L175.248,229.491L175.248,229.491z
		 M185.489,209.143h6.444v-3.391H181.76v23.74h10.173V226.1h-6.444v-6.951h5.12v-3.391h-5.12v-6.612V209.143z M193.153,209.143h3.9
		v20.348h3.731v-20.348h3.9v-3.391h-11.531L193.153,209.143L193.153,209.143z M160.971,266.59v3.596h3.594v-3.596H160.971z
		 M167.28,270.186h3.731v-23.74h-3.731V270.186z M181.692,270.186h3.833v-23.74h-3.322v14.21l-3.832-14.21h-4.681v23.74h3.358
		v-17.193L181.692,270.186z M191.934,249.84h6.138v-3.393h-9.869v23.74h3.731v-9.801h4.816v-3.391h-4.816V249.84z M203.295,251.908
		c0-1.696,0.746-2.339,1.933-2.339c1.187,0,1.931,0.644,1.931,2.339v12.819c0,1.696-0.746,2.341-1.931,2.341
		c-1.187,0-1.933-0.644-1.933-2.341V251.908z M199.564,264.491c0,3.799,2,5.968,5.664,5.968c3.662,0,5.662-2.17,5.662-5.968v-12.345
		c0-3.799-2-5.968-5.662-5.968c-3.665,0-5.664,2.172-5.664,5.968V264.491z"/>
	<path style="fill:#C9CACC;" d="M290.932,148.589c6.884,0,13.459,1.371,19.458,3.858c6.235,2.582,11.84,6.361,16.528,11.05
		c4.688,4.688,8.466,10.292,11.048,16.526c2.487,5.999,3.858,12.574,3.858,19.458c0,6.886-1.371,13.459-3.858,19.46
		c-2.582,6.236-6.361,11.84-11.048,16.526c-4.688,4.688-10.292,8.468-16.528,11.05c-5.999,2.487-12.574,3.858-19.458,3.858
		c-6.886,0-13.459-1.371-19.46-3.858c-6.235-2.582-11.84-6.361-16.526-11.05c-4.688-4.688-8.468-10.292-11.05-16.526
		c-2.487-5.999-3.858-12.574-3.858-19.46c0-6.884,1.371-13.459,3.858-19.458c2.582-6.236,6.361-11.84,11.05-16.526
		c4.688-4.688,10.292-8.468,16.526-11.05C277.471,149.961,284.046,148.589,290.932,148.589z M249.582,218.974h14.724
		c-1.01-2.659-1.805-5.356-2.381-8.072c-0.62-2.915-0.992-5.863-1.118-8.824h-15.505c0.161,2.886,0.593,5.709,1.27,8.437
		C247.302,213.464,248.316,216.293,249.582,218.974z M269.889,218.974h18.446v-16.896h-22.348c0.133,2.79,0.512,5.576,1.136,8.339
		c0.651,2.879,1.572,5.739,2.767,8.555V218.974z M293.529,218.974h18.446c1.195-2.815,2.119-5.678,2.77-8.555
		c0.622-2.765,1.001-5.552,1.133-8.339h-22.348v16.896V218.974z M317.555,218.974h14.726c1.266-2.681,2.28-5.51,3.01-8.457
		c0.677-2.73,1.109-5.552,1.27-8.437h-15.505c-0.126,2.961-0.498,5.909-1.118,8.824c-0.578,2.717-1.371,5.412-2.381,8.072h-0.002
		V218.974z M329.397,224.168H315.28c-0.673,1.353-1.409,2.699-2.205,4.028c-0.91,1.524-1.905,3.034-2.981,4.524
		c-1.861,2.58-3.955,5.084-6.282,7.487c-1.38,1.426-2.844,2.824-4.396,4.187c3.876-0.728,7.582-1.947,11.05-3.587
		c4.769-2.258,9.086-5.321,12.779-9.013h0.004c1.395-1.395,2.703-2.884,3.911-4.451C327.948,226.32,328.696,225.262,329.397,224.168
		L329.397,224.168z M309.423,224.168h-15.895v18.413c2.152-1.731,4.143-3.523,5.97-5.368c2.399-2.418,4.533-4.932,6.396-7.514
		c0.824-1.145,1.616-2.33,2.37-3.556c0.403-0.657,0.791-1.316,1.16-1.973L309.423,224.168L309.423,224.168z M288.334,224.168
		h-15.895c0.368,0.657,0.757,1.316,1.16,1.973c0.752,1.226,1.543,2.412,2.368,3.556c1.865,2.582,3.997,5.095,6.396,7.514
		c1.83,1.845,3.821,3.638,5.97,5.368L288.334,224.168L288.334,224.168z M266.583,224.168h-14.117
		c0.704,1.094,1.448,2.154,2.236,3.175c1.206,1.568,2.516,3.056,3.911,4.451h0.004c3.693,3.693,8.012,6.756,12.779,9.013
		c3.468,1.643,7.175,2.861,11.05,3.587c-1.552-1.362-3.018-2.761-4.396-4.187c-2.326-2.405-4.42-4.908-6.284-7.487
		c-1.076-1.49-2.07-3.001-2.981-4.524c-0.796-1.331-1.532-2.677-2.205-4.028H266.583z M252.466,174.796h14.365
		c0.629-1.248,1.309-2.494,2.044-3.735c0.853-1.437,1.769-2.855,2.75-4.249c1.88-2.675,4.01-5.277,6.379-7.783
		c1.453-1.535,2.996-3.036,4.632-4.498c-3.927,0.721-7.682,1.944-11.192,3.601c-4.787,2.26-9.121,5.332-12.828,9.035
		c-2.312,2.312-4.378,4.87-6.152,7.629L252.466,174.796L252.466,174.796z M272.704,174.796h15.63v-18.338
		c-2.157,1.782-4.163,3.636-6.012,5.549c-2.412,2.496-4.568,5.1-6.455,7.786c-0.77,1.094-1.493,2.199-2.168,3.306
		C273.357,173.66,273.024,174.227,272.704,174.796z M293.529,174.796h15.63c-0.319-0.569-0.653-1.136-0.994-1.698
		c-0.675-1.109-1.398-2.212-2.168-3.306c-1.887-2.684-4.044-5.29-6.455-7.786c-1.849-1.914-3.856-3.768-6.012-5.549v18.338H293.529z
		 M315.032,174.796h14.365c-0.702-1.094-1.448-2.152-2.234-3.173c-1.198-1.557-2.509-3.045-3.918-4.456
		c-3.707-3.707-8.041-6.778-12.828-9.035c-3.51-1.656-7.263-2.879-11.192-3.601c1.636,1.459,3.18,2.963,4.632,4.498
		c2.37,2.507,4.498,5.109,6.379,7.783c0.981,1.393,1.898,2.813,2.75,4.249c0.735,1.242,1.418,2.487,2.044,3.735L315.032,174.796
		L315.032,174.796z M332.284,179.991h-14.945c1.03,2.659,1.852,5.359,2.46,8.083c0.653,2.917,1.061,5.863,1.224,8.811h15.538
		c-0.161-2.886-0.593-5.709-1.27-8.437c-0.73-2.948-1.744-5.777-3.01-8.457L332.284,179.991z M311.743,179.991h-18.212v16.896h22.31
		c-0.172-2.772-0.587-5.545-1.24-8.304c-0.69-2.906-1.645-5.779-2.859-8.59L311.743,179.991L311.743,179.991z M288.337,179.991
		h-18.212c-1.215,2.813-2.17,5.684-2.859,8.59c-0.655,2.759-1.069,5.534-1.24,8.304h22.31v-16.897L288.337,179.991L288.337,179.991z
		 M264.528,179.991h-14.945c-1.266,2.681-2.28,5.51-3.01,8.457c-0.677,2.73-1.109,5.552-1.27,8.437h15.54
		c0.163-2.95,0.571-5.893,1.224-8.811c0.609-2.726,1.429-5.424,2.46-8.083v-0.001H264.528z"/>
</g>
<path style="fill:#FF5B62;" d="M370.106,297.894l8.714-17.608l18.904,18.377l6.11-6.286l-18.904-18.375l17.354-9.207l-48.498-14.956
	l16.32,48.057V297.894z"/>
<g>
	<path style="fill:#FAD24D;" d="M124.821,162.1h27.261v27.261h-27.261V162.1z"/>
	<path style="fill:#FAD24D;" d="M124.821,202.636h27.261v27.261h-27.261V202.636z"/>
	<path style="fill:#FAD24D;" d="M124.821,246.325h27.261v27.261h-27.261V246.325z"/>
</g>
<path style="fill:#FFFFFF;" d="M130.253,174.443l3.795,4.646l15.5-14.075l1.316,1.334l-17.182,18.468l-7.918-9.898l4.487-0.474
	h0.002V174.443z"/>
<path style="fill:#FAD24D;" d="M334.53,257.034c-0.739-0.035-1.307-0.66-1.273-1.398c0.035-0.739,0.662-1.307,1.398-1.273
	l10.629,0.514c0.737,0.035,1.307,0.66,1.273,1.398c-0.035,0.739-0.66,1.307-1.398,1.273l-10.627-0.514L334.53,257.034
	L334.53,257.034z M349.472,263.598c0.487-0.551,1.331-0.604,1.883-0.117c0.551,0.487,0.604,1.331,0.117,1.883l-9.974,11.289
	c-0.487,0.551-1.331,0.604-1.883,0.117c-0.554-0.487-0.604-1.331-0.117-1.883L349.472,263.598z M377.564,233.656
	c0.487-0.551,1.331-0.604,1.883-0.117c0.551,0.487,0.604,1.331,0.117,1.883l-9.974,11.289c-0.487,0.551-1.331,0.604-1.883,0.117
	c-0.551-0.487-0.604-1.331-0.117-1.883L377.564,233.656z M357.147,230.949c-0.139-0.724,0.337-1.422,1.063-1.561
	c0.726-0.139,1.424,0.337,1.561,1.063l1.98,10.456c0.139,0.726-0.337,1.424-1.063,1.561c-0.726,0.139-1.424-0.337-1.561-1.063
	L357.147,230.949z M338.376,236.666c-0.512-0.531-0.496-1.376,0.035-1.887c0.531-0.512,1.376-0.498,1.887,0.033l10.638,11.048
	c0.514,0.531,0.498,1.376-0.033,1.887c-0.531,0.512-1.376,0.496-1.887-0.035L338.376,236.666z"/>
<circle style="fill:#B6B6B8;" cx="255.999" cy="346.801" r="7.816"/>
<path style="fill:#C2C2C4;" d="M305.065,407.272l36.095,11.566H170.836l29.124-11.566V371.56h105.105V407.272z"/>
<path style="fill:#B6B6B8;" d="M305.065,407.272L199.96,371.56h105.105V407.272z"/>
<path style="fill:#ECF0F1;" d="M199.96,407.272h105.105l36.095,11.566v4.981H256h-85.164v-4.981L199.96,407.272z"/>
<g>
</g>
<g>
</g>
<g>
</g>
<g>
</g>
<g>
</g>
<g>
</g>
<g>
</g>
<g>
</g>
<g>
</g>
<g>
</g>
<g>
</g>
<g>
</g>
<g>
</g>
<g>
</g>
<g>
</g>
</svg>
