<svg height="512pt" viewBox="0 0 512 512" width="512pt" xmlns="http://www.w3.org/2000/svg"><path d="m440 56 32 16 32-16v64c0 17.671875-14.328125 32-32 32h-32zm0 0" fill="#b0bec5"/><path d="m472 152c-17.671875 0-32-14.328125-32-32v-80c0-17.671875-14.328125-32-32-32s-32 14.328125-32 32v112zm0 0" fill="#cfd8dc"/><path d="m120 376v-336c0-17.671875 14.328125-32 32-32h256c-17.671875 0-32 14.328125-32 32v336zm0 0" fill="#ff8a65"/><path d="m168 72h80v96h-80zm0 0" fill="#ffe082"/><path d="m96 512 80-88h144l96-32 80-72c-18.28125-18.28125-47.3125-20.085938-67.71875-4.214844l-36.28125 28.214844-56 16-88-8v-24l58.800781-5.863281c12.03125-1.199219 21.199219-11.324219 21.199219-23.417969v-.605469c.035156-6.75-2.738281-13.207031-7.648438-17.832031-4.914062-4.628906-11.53125-7.003906-18.261718-6.5625l-94.089844 6.28125-88 40-120 129.335938v62.664062zm0 0" fill="#ffe082"/><g fill="#fff"><path d="m272 64h64v16h-64zm0 0"/><path d="m272 96h64v16h-64zm0 0"/><path d="m272 128h64v16h-64zm0 0"/><path d="m272 160h64v16h-64zm0 0"/><path d="m160 192h176v16h-176zm0 0"/><path d="m160 224h80v16h-80zm0 0"/></g><path d="m256 64h-96v112h96zm-16 96h-64v-80h64zm0 0"/><path d="m472 63.054688-24-12v-11.054688c-.027344-22.082031-17.917969-39.9726562-40-40h-256c-22.082031.0273438-39.972656 17.917969-40 40v276.863281l-109.863281 118.410157 11.726562 10.878906 110.9375-119.535156 85.207031-38.738282 92.640626-6.175781c4.484374-.3125 8.898437 1.257813 12.175781 4.335937 3.453125 3.296876 5.335937 7.910157 5.175781 12.679688.023438 7.992188-6.042969 14.6875-14 15.449219l-66 6.632812v38.542969l96.800781 8.800781 58.925781-16.800781 37.496094-29.167969c14.71875-11.398437 35.070313-12.136719 50.578125-1.839843l-71.871093 64.679687-93.226563 30.984375h-146.238281l-75.113282 82.617188 11.839844 10.765624 70.34375-77.382812h141.761719l98.816406-32.9375 87.511719-78.757812-5.96875-5.960938c-21.152344-21.09375-54.683594-23.179688-78.289062-4.871094l-35.054688 27.261719-4.3125 1.234375v-177.96875h88c22.082031-.027344 39.972656-17.917969 40-40v-76.945312zm-104-23.054688v302.535156l-32.761719 9.359375-79.238281-7.199219v-9.457031l51.59375-5.140625c16.347656-1.65625 28.703125-15.570312 28.40625-32 .035156-8.957031-3.648438-17.523437-10.167969-23.660156-6.523437-6.136719-15.296875-9.292969-24.230469-8.71875l-95.546874 6.402344-78.054688 35.453125v-267.574219c0-13.253906 10.746094-24 24-24h224.207031c-5.292969 6.882812-8.175781 15.316406-8.207031 24zm16 104v-104c0-13.253906 10.746094-24 24-24s24 10.746094 24 24v80c.03125 8.683594 2.914062 17.117188 8.207031 24zm112-24c0 13.253906-10.746094 24-24 24s-24-10.746094-24-24v-51.054688l24 12 24-12zm0 0"/><path d="m0 0h16v96h-16zm0 0"/><path d="m32 0h16v64h-16zm0 0"/><path d="m64 0h16v32h-16zm0 0"/><path d="m496 416h16v96h-16zm0 0"/><path d="m464 448h16v64h-16zm0 0"/><path d="m432 480h16v32h-16zm0 0"/></svg>