<svg height="512pt" viewBox="0 0 512 512" width="512pt" xmlns="http://www.w3.org/2000/svg"><path d="m208 512v-147.503906c.003906-7.34375-4.996094-13.746094-12.121094-15.527344l-51.878906-12.96875h-48l-51.878906 12.96875c-7.125 1.78125-12.125 8.183594-12.121094 15.527344v147.503906zm0 0" fill="#7986cb"/><path d="m144 336s0 16-24 16-24-16-24-16v-40h48zm0 0" fill="#ffd54f"/><path d="m152 248v47.742188l-21.335938 16.257812h-21.328124l-21.335938-16.257812v-47.742188zm0 0" fill="#ffe082"/><path d="m72 248c4.703125-18.804688 21.597656-32 40.984375-32h23.015625c8.835938 0 16 7.164062 16 16v16zm0 0" fill="#90a4ae"/><path d="m32 416h32v96h-32zm0 0" fill="#ffd54f"/><path d="m320 512v-147.503906c-.003906-7.34375 4.996094-13.746094 12.121094-15.527344l51.878906-12.96875h48l51.878906 12.96875c7.125 1.78125 12.125 8.183594 12.121094 15.527344v147.503906zm0 0" fill="#7986cb"/><path d="m384 336s0 16 24 16 24-16 24-16v-40h-48zm0 0" fill="#ffd54f"/><path d="m376 248v47.742188l21.335938 16.257812h21.328124l21.335938-16.257812v-47.742188zm0 0" fill="#ffe082"/><path d="m456 248c-4.703125-18.804688-21.597656-32-40.984375-32h-23.015625c-8.835938 0-16 7.164062-16 16v16zm0 0" fill="#90a4ae"/><path d="m464 416h32v96h-32zm0 0" fill="#ffd54f"/><path d="m328 376v-96c0-35.347656-28.652344-64-64-64s-64 28.652344-64 64v96zm0 0" fill="#90a4ae"/><path d="m184 512v-131.703125c0-8.039063 5.964844-14.828125 13.9375-15.863281l34.0625-4.433594h64l34.0625 4.433594c7.972656 1.035156 13.9375 7.824218 13.9375 15.863281v131.703125zm0 0" fill="#9fa8da"/><path d="m296 360c-.003906 14.707031-8.308594 28.152344-21.464844 34.734375l-10.535156 5.265625-10.535156-5.265625c-13.15625-6.582031-21.460938-20.027344-21.464844-34.734375 8.835938 0 16-7.164062 16-16v-16h32v16c0 8.835938 7.164062 16 16 16zm0 0" fill="#ffd54f"/><path d="m296 289.078125v18.539063c0 12.433593-7.207031 23.746093-18.480469 29l-13.519531 6.304687-13.519531-6.304687c-11.273438-5.253907-18.480469-16.566407-18.480469-29v-34.539063zm0 0" fill="#ffe082"/><path d="m8 0h496v80h-106l-110 80h-212.800781l-67.199219 56zm0 0" fill="#ff8a65"/><path d="m96 160c0 13.253906-10.746094 24-24 24s-24-10.746094-24-24 10.746094-24 24-24 24 10.746094 24 24zm0 0" fill="#ffe082"/><path d="m288 160c0 13.253906-10.746094 24-24 24s-24-10.746094-24-24 10.746094-24 24-24 24 10.746094 24 24zm0 0" fill="#ffe082"/><path d="m416 80c0 13.253906-10.746094 24-24 24s-24-10.746094-24-24 10.746094-24 24-24 24 10.746094 24 24zm0 0" fill="#ffe082"/><g fill="#fff"><path d="m400 376h16v40h-16zm0 0"/><path d="m112 376h16v40h-16zm0 0"/><path d="m64 0h16v140h-16zm0 0"/><path d="m128 0h16v156h-16zm0 0"/><path d="m192 0h16v156h-16zm0 0"/><path d="m256 0h16v136h-16zm0 0"/><path d="m320 0h16v132h-16zm0 0"/><path d="m384 0h16v60h-16zm0 0"/><path d="m448 0h16v80h-16zm0 0"/></g><path d="m496 0v72h-73.136719c-4.011719-15.585938-18.992187-25.753906-34.957031-23.71875-15.96875 2.03125-27.925781 15.625-27.90625 31.71875.035156 5.222656 1.367188 10.355469 3.871094 14.9375l-70.941406 51.589844c-5.644532-12.253906-18.398438-19.621094-31.832032-18.390625s-24.636718 10.789062-27.960937 23.863281h-130.273438c-3.011719-12.0625-12.757812-21.277344-24.96875-23.609375-12.214843-2.332031-24.667969 2.644531-31.914062 12.75-7.242188 10.105469-7.957031 23.496094-1.828125 34.316406l-28.152344 23.464844v-198.921875h-16v233.078125l55.199219-45.972656c8.597656 5.417969 19.273437 6.386719 28.707031 2.605469s16.480469-11.855469 18.957031-21.710938h130.273438c3.773437 14.761719 17.472656 24.78125 32.6875 23.902344 15.210937-.878906 27.664062-12.410156 29.710937-27.511719l79.144532-57.550781c8.597656 5.613281 19.378906 6.726562 28.945312 2.988281 9.5625-3.742187 16.730469-11.871094 19.238281-21.828125h89.136719v-88zm-424 176c-8.835938 0-16-7.164062-16-16s7.164062-16 16-16 16 7.164062 16 16-7.164062 16-16 16zm192 0c-8.835938 0-16-7.164062-16-16s7.164062-16 16-16 16 7.164062 16 16-7.164062 16-16 16zm128-80c-8.835938 0-16-7.164062-16-16s7.164062-16 16-16 16 7.164062 16 16-7.164062 16-16 16zm0 0"/><path d="m208 400h16v112h-16zm0 0"/><path d="m304 400h16v112h-16zm0 0"/><path d="m485.824219 341.207031-45.824219-11.445312v-23.960938l8-6.097656v-43.703125h18.246094l-2.484375-9.9375c-5.566407-22.382812-25.679688-38.089844-48.746094-38.0625h-23.015625c-13.253906 0-24 10.746094-24 24v67.703125l8 6.097656v23.960938l-40 9.992187v-59.753906c0-39.765625-32.234375-72-72-72s-72 32.234375-72 72v59.753906l-40-9.992187v-23.960938l8-6.097656v-67.703125c0-13.253906-10.746094-24-24-24h-23.015625c-23.066406-.027344-43.179687 15.679688-48.746094 38.0625l-2.484375 9.9375h18.246094v43.703125l8 6.097656v23.960938l-45.832031 11.445312c-10.679688 2.675781-18.171875 12.277344-18.167969 23.289063v147.503906h16v-88h16v88h16v-128h-16v24h-16v-43.503906c-.003906-3.671875 2.492188-6.875 6.054688-7.769532l44.457031-11.125c3.777343 7.199219 12.375 14.398438 29.488281 14.398438s25.710938-7.199219 29.488281-14.398438l42.511719 10.636719v1.480469c-9.5625 3.398438-15.964844 12.429688-16 22.578125v131.703125h16v-131.703125c0-4.019531 2.980469-7.417969 6.96875-7.9375l25.886719-3.359375c2.75 14.269531 12.007812 26.4375 25.03125 32.886719l6.113281 3.058593v107.054688h16v-107.054688l6.113281-3.058593c13.023438-6.449219 22.28125-18.617188 25.03125-32.886719l25.894531 3.367188c3.980469.523437 6.957032 3.914062 6.960938 7.929687v131.703125h16v-131.703125c-.035156-10.148437-6.4375-19.179687-16-22.578125v-1.480469l42.511719-10.636719c3.777343 7.199219 12.375 14.398438 29.488281 14.398438s25.710938-7.199219 29.488281-14.398438l44.449219 11.109376c3.5625.890624 6.066406 4.09375 6.0625 7.769531v43.519531h-16v-24h-16v128h16v-88h16v88h16v-147.503906c.003906-11.015625-7.492188-20.617188-18.175781-23.289063zm-357.824219-85.207031v-16h-44c6.261719-9.96875 17.21875-16.015625 28.992188-16h23.007812c4.417969 0 8 3.582031 8 8v59.785156l-16 12.214844h-15.921875l-16.078125-12.214844v-35.785156zm-8 88c-14.726562 0-15.910156-6.855469-16-8v-18.007812l2.632812 2.007812h26.734376l2.632812-2.007812v17.832031c-.113281 1.457031-1.398438 8.175781-16 8.175781zm150.953125 43.574219-6.953125 3.480469-6.953125-3.480469c-8.429687-4.195313-14.453125-12.042969-16.335937-21.269531 7.878906-3.089844 13.542968-10.109376 14.898437-18.464844l8.390625 3.914062 8.390625-3.914062c1.355469 8.355468 7.019531 15.375 14.898437 18.464844-1.882812 9.226562-7.90625 17.074218-16.335937 21.269531zm3.199219-58.207031-10.152344 4.730468-10.144531-4.730468c-8.4375-3.960938-13.832031-12.4375-13.855469-21.757813v-24.28125l48 12v12.28125c-.023438 9.320313-5.417969 17.796875-13.855469 21.757813zm20.910156 22.441406c-3.996094-.429688-7.03125-3.789063-7.0625-7.808594v-4.519531c10.027344-7.535157 15.949219-19.332031 16-31.871094v-24.800781l-80-20v44.800781c.050781 12.539063 5.972656 24.335937 16 31.871094v4.519531c-.035156 4.007812-3.058594 7.359375-7.039062 7.808594l-24.960938 3.238281v-75.046875c0-30.929688 25.070312-56 56-56s56 25.070312 56 56v75.054688zm88.9375-119.808594c0-4.417969 3.582031-8 8-8h23.015625c11.773437-.011719 22.722656 6.03125 28.984375 16h-44v16h32v35.785156l-16 12.214844h-15.921875l-16.078125-12.214844zm24 112c-14.726562 0-15.910156-6.855469-16-8v-18.007812l2.632812 2.007812h26.734376l2.632812-2.007812v17.832031c-.113281 1.457031-1.398438 8.175781-16 8.175781zm0 0"/></svg>