<?xml version="1.0" standalone="no"?>
<!DOCTYPE svg PUBLIC "-//W3C//DTD SVG 20010904//EN"
 "http://www.w3.org/TR/2001/REC-SVG-20010904/DTD/svg10.dtd">
<svg version="1.0" xmlns="http://www.w3.org/2000/svg"
 width="200.000000pt" height="200.000000pt" viewBox="0 0 200.000000 200.000000"
 preserveAspectRatio="xMidYMid meet">
<metadata>
Created by potrace 1.11, written by Peter Selinger 2001-2013
</metadata>
<g transform="translate(0.000000,200.000000) scale(0.100000,-0.100000)"
fill="#000000" stroke="none">
<path d="M823 1926 c-380 -73 -677 -341 -774 -701 -32 -118 -32 -336 0 -455
58 -218 199 -416 385 -543 86 -58 214 -115 324 -143 122 -32 322 -36 445 -10
368 79 654 347 748 701 28 105 31 317 6 417 -45 183 -128 332 -256 459 -129
128 -263 205 -443 255 -116 32 -322 41 -435 20z m-292 -534 c68 -35 99 -89 99
-173 0 -110 -36 -173 -190 -341 l-92 -98 145 0 c166 0 170 -2 165 -77 l-3 -48
-240 -3 c-268 -3 -265 -4 -265 67 0 47 19 76 135 200 121 131 155 187 155 259
0 103 -74 131 -197 73 -34 -16 -64 -27 -67 -24 -3 4 -6 32 -6 63 0 66 4 72 87
106 87 35 202 34 274 -4z m657 -224 l2 -237 43 -3 42 -3 3 -48 c4 -58 -9 -77
-54 -77 l-33 0 -3 -72 -3 -73 -64 -3 c-45 -2 -67 1 -72 10 -5 7 -9 41 -9 76
l0 62 -134 0 c-74 0 -147 5 -161 10 -26 10 -27 12 -23 78 3 66 7 75 122 278
66 115 126 217 134 227 13 15 30 17 111 15 l96 -3 3 -237z m660 230 c7 -7 12
-34 12 -61 0 -41 -22 -101 -131 -356 -73 -168 -136 -312 -142 -318 -14 -19
-156 -18 -163 2 -3 8 53 144 125 303 72 160 131 292 131 296 0 3 -67 6 -149 6
-82 0 -156 3 -165 6 -12 5 -16 20 -16 63 0 32 3 61 7 64 12 13 478 8 491 -5z"/>
<path d="M944 1103 c-49 -86 -90 -160 -92 -165 -2 -4 39 -8 92 -8 l96 0 0 165
c0 91 -1 165 -3 165 -2 0 -43 -71 -93 -157z"/>
</g>
</svg>
